<mxfile host="app.diagrams.net" modified="2024-04-18T11:53:09.121Z" agent="Mozilla/5.0 (Windows NT 10.0; Win64; x64; rv:125.0) Gecko/20100101 Firefox/125.0" etag="kTylM06hhofDhnukO1de" version="24.2.5" type="device">
  <diagram name="Page-1" id="2YBvvXClWsGukQMizWep">
    <mxGraphModel dx="1449" dy="991" grid="1" gridSize="10" guides="1" tooltips="1" connect="1" arrows="1" fold="1" page="1" pageScale="1" pageWidth="850" pageHeight="1100" math="0" shadow="0">
      <root>
        <mxCell id="0" />
        <mxCell id="1" parent="0" />
        <mxCell id="Ofr6lyuUFpWB4M0gGV1Q-14" value="Check Customer Blacklist" style="text;html=1;align=center;verticalAlign=middle;resizable=0;points=[];autosize=1;strokeColor=none;fillColor=none;fontSize=10;" parent="1" vertex="1">
          <mxGeometry x="574" y="219" width="140" height="30" as="geometry" />
        </mxCell>
        <mxCell id="aM9ryv3xv72pqoxQDRHE-1" value="Booking" style="shape=umlLifeline;perimeter=lifelinePerimeter;whiteSpace=wrap;html=1;container=0;dropTarget=0;collapsible=0;recursiveResize=0;outlineConnect=0;portConstraint=eastwest;newEdgeStyle={&quot;edgeStyle&quot;:&quot;elbowEdgeStyle&quot;,&quot;elbow&quot;:&quot;vertical&quot;,&quot;curved&quot;:0,&quot;rounded&quot;:0};" parent="1" vertex="1">
          <mxGeometry x="105" y="40" width="100" height="540" as="geometry" />
        </mxCell>
        <mxCell id="aM9ryv3xv72pqoxQDRHE-2" value="" style="html=1;points=[];perimeter=orthogonalPerimeter;outlineConnect=0;targetShapes=umlLifeline;portConstraint=eastwest;newEdgeStyle={&quot;edgeStyle&quot;:&quot;elbowEdgeStyle&quot;,&quot;elbow&quot;:&quot;vertical&quot;,&quot;curved&quot;:0,&quot;rounded&quot;:0};" parent="aM9ryv3xv72pqoxQDRHE-1" vertex="1">
          <mxGeometry x="45" y="70" width="10" height="360" as="geometry" />
        </mxCell>
        <mxCell id="aM9ryv3xv72pqoxQDRHE-5" value="QrInvoice" style="shape=umlLifeline;perimeter=lifelinePerimeter;whiteSpace=wrap;html=1;container=0;dropTarget=0;collapsible=0;recursiveResize=0;outlineConnect=0;portConstraint=eastwest;newEdgeStyle={&quot;edgeStyle&quot;:&quot;elbowEdgeStyle&quot;,&quot;elbow&quot;:&quot;vertical&quot;,&quot;curved&quot;:0,&quot;rounded&quot;:0};" parent="1" vertex="1">
          <mxGeometry x="250" y="40" width="100" height="540" as="geometry" />
        </mxCell>
        <mxCell id="3agZdKZBJswB5Rg16gf0-13" value="" style="html=1;points=[];perimeter=orthogonalPerimeter;outlineConnect=0;targetShapes=umlLifeline;portConstraint=eastwest;newEdgeStyle={&quot;edgeStyle&quot;:&quot;elbowEdgeStyle&quot;,&quot;elbow&quot;:&quot;vertical&quot;,&quot;curved&quot;:0,&quot;rounded&quot;:0};" parent="aM9ryv3xv72pqoxQDRHE-5" vertex="1">
          <mxGeometry x="45" y="80" width="10" height="40" as="geometry" />
        </mxCell>
        <mxCell id="aM9ryv3xv72pqoxQDRHE-7" value="Create Invoice" style="html=1;verticalAlign=bottom;endArrow=block;edgeStyle=elbowEdgeStyle;elbow=vertical;curved=0;rounded=0;dashed=1;fontSize=10;" parent="1" target="3agZdKZBJswB5Rg16gf0-13" edge="1">
          <mxGeometry relative="1" as="geometry">
            <mxPoint x="160" y="120" as="sourcePoint" />
            <Array as="points">
              <mxPoint x="245" y="120" />
            </Array>
            <mxPoint x="290" y="120" as="targetPoint" />
          </mxGeometry>
        </mxCell>
        <mxCell id="aM9ryv3xv72pqoxQDRHE-9" value="Return Invoice" style="html=1;verticalAlign=bottom;endArrow=block;edgeStyle=elbowEdgeStyle;elbow=vertical;curved=0;rounded=0;dashed=1;" parent="1" source="3agZdKZBJswB5Rg16gf0-13" target="aM9ryv3xv72pqoxQDRHE-2" edge="1">
          <mxGeometry relative="1" as="geometry">
            <mxPoint x="290" y="160" as="sourcePoint" />
            <Array as="points">
              <mxPoint x="255" y="160" />
            </Array>
            <mxPoint x="165.00000000000006" y="160" as="targetPoint" />
          </mxGeometry>
        </mxCell>
        <mxCell id="aM9ryv3xv72pqoxQDRHE-10" value="&lt;font style=&quot;font-size: 10px;&quot;&gt;QrInvoiceCreatedEvent&lt;/font&gt;" style="html=1;verticalAlign=bottom;endArrow=open;endSize=8;elbow=vertical;rounded=0;" parent="1" target="3agZdKZBJswB5Rg16gf0-2" edge="1">
          <mxGeometry relative="1" as="geometry">
            <mxPoint x="512.25" y="189.71" as="targetPoint" />
            <mxPoint x="160" y="190" as="sourcePoint" />
          </mxGeometry>
        </mxCell>
        <mxCell id="3agZdKZBJswB5Rg16gf0-1" value="Notification" style="shape=umlLifeline;perimeter=lifelinePerimeter;whiteSpace=wrap;html=1;container=0;dropTarget=0;collapsible=0;recursiveResize=0;outlineConnect=0;portConstraint=eastwest;newEdgeStyle={&quot;edgeStyle&quot;:&quot;elbowEdgeStyle&quot;,&quot;elbow&quot;:&quot;vertical&quot;,&quot;curved&quot;:0,&quot;rounded&quot;:0};" parent="1" vertex="1">
          <mxGeometry x="390" y="40" width="100" height="540" as="geometry" />
        </mxCell>
        <mxCell id="3agZdKZBJswB5Rg16gf0-2" value="" style="html=1;points=[];perimeter=orthogonalPerimeter;outlineConnect=0;targetShapes=umlLifeline;portConstraint=eastwest;newEdgeStyle={&quot;edgeStyle&quot;:&quot;elbowEdgeStyle&quot;,&quot;elbow&quot;:&quot;vertical&quot;,&quot;curved&quot;:0,&quot;rounded&quot;:0};" parent="3agZdKZBJswB5Rg16gf0-1" vertex="1">
          <mxGeometry x="45" y="130" width="10" height="40" as="geometry" />
        </mxCell>
        <mxCell id="3agZdKZBJswB5Rg16gf0-3" value="Accounting" style="shape=umlLifeline;perimeter=lifelinePerimeter;whiteSpace=wrap;html=1;container=0;dropTarget=0;collapsible=0;recursiveResize=0;outlineConnect=0;portConstraint=eastwest;newEdgeStyle={&quot;edgeStyle&quot;:&quot;elbowEdgeStyle&quot;,&quot;elbow&quot;:&quot;vertical&quot;,&quot;curved&quot;:0,&quot;rounded&quot;:0};" parent="1" vertex="1">
          <mxGeometry x="530" y="40" width="100" height="540" as="geometry" />
        </mxCell>
        <mxCell id="3agZdKZBJswB5Rg16gf0-4" value="" style="html=1;points=[];perimeter=orthogonalPerimeter;outlineConnect=0;targetShapes=umlLifeline;portConstraint=eastwest;newEdgeStyle={&quot;edgeStyle&quot;:&quot;elbowEdgeStyle&quot;,&quot;elbow&quot;:&quot;vertical&quot;,&quot;curved&quot;:0,&quot;rounded&quot;:0};" parent="3agZdKZBJswB5Rg16gf0-3" vertex="1">
          <mxGeometry x="45" y="170" width="10" height="250" as="geometry" />
        </mxCell>
        <mxCell id="aM9ryv3xv72pqoxQDRHE-3" value="" style="html=1;verticalAlign=bottom;startArrow=oval;endArrow=block;startSize=8;edgeStyle=elbowEdgeStyle;elbow=vertical;curved=0;rounded=0;" parent="1" target="aM9ryv3xv72pqoxQDRHE-2" edge="1">
          <mxGeometry relative="1" as="geometry">
            <mxPoint x="20" y="110" as="sourcePoint" />
            <Array as="points">
              <mxPoint x="50" y="110" />
            </Array>
          </mxGeometry>
        </mxCell>
        <mxCell id="3agZdKZBJswB5Rg16gf0-12" value="Booking Created" style="text;html=1;align=center;verticalAlign=middle;resizable=0;points=[];autosize=1;strokeColor=none;fillColor=none;fontSize=10;" parent="1" vertex="1">
          <mxGeometry x="35" y="80" width="100" height="30" as="geometry" />
        </mxCell>
        <mxCell id="3agZdKZBJswB5Rg16gf0-15" value="" style="html=1;verticalAlign=bottom;endArrow=open;endSize=8;edgeStyle=elbowEdgeStyle;elbow=vertical;curved=0;rounded=0;" parent="1" source="aM9ryv3xv72pqoxQDRHE-1" edge="1">
          <mxGeometry relative="1" as="geometry">
            <mxPoint x="575" y="224" as="targetPoint" />
            <Array as="points">
              <mxPoint x="185" y="224" />
            </Array>
            <mxPoint x="185" y="191" as="sourcePoint" />
          </mxGeometry>
        </mxCell>
        <mxCell id="3agZdKZBJswB5Rg16gf0-19" value="InvoiceBookingCreated" style="text;whiteSpace=wrap;html=1;fontSize=10;labelBackgroundColor=default;" parent="1" vertex="1">
          <mxGeometry x="232" y="204" width="170" height="11" as="geometry" />
        </mxCell>
        <mxCell id="Ofr6lyuUFpWB4M0gGV1Q-4" value="" style="endArrow=classic;html=1;rounded=0;" parent="1" edge="1">
          <mxGeometry width="50" height="50" relative="1" as="geometry">
            <mxPoint x="105" y="635" as="sourcePoint" />
            <mxPoint x="205" y="635" as="targetPoint" />
          </mxGeometry>
        </mxCell>
        <mxCell id="Ofr6lyuUFpWB4M0gGV1Q-5" value="Kafka event flow" style="text;html=1;align=center;verticalAlign=middle;whiteSpace=wrap;rounded=0;" parent="1" vertex="1">
          <mxGeometry x="100" y="610" width="100" height="30" as="geometry" />
        </mxCell>
        <mxCell id="Ofr6lyuUFpWB4M0gGV1Q-6" value="" style="endArrow=classic;html=1;rounded=0;dashed=1;" parent="1" edge="1">
          <mxGeometry width="50" height="50" relative="1" as="geometry">
            <mxPoint x="230" y="635" as="sourcePoint" />
            <mxPoint x="330" y="635" as="targetPoint" />
          </mxGeometry>
        </mxCell>
        <mxCell id="Ofr6lyuUFpWB4M0gGV1Q-8" value="API calls" style="text;html=1;align=center;verticalAlign=middle;whiteSpace=wrap;rounded=0;" parent="1" vertex="1">
          <mxGeometry x="225" y="610" width="95" height="30" as="geometry" />
        </mxCell>
        <mxCell id="Ofr6lyuUFpWB4M0gGV1Q-11" value="External Blacklist DB" style="shape=umlLifeline;perimeter=lifelinePerimeter;whiteSpace=wrap;html=1;container=0;dropTarget=0;collapsible=0;recursiveResize=0;outlineConnect=0;portConstraint=eastwest;newEdgeStyle={&quot;edgeStyle&quot;:&quot;elbowEdgeStyle&quot;,&quot;elbow&quot;:&quot;vertical&quot;,&quot;curved&quot;:0,&quot;rounded&quot;:0};" parent="1" vertex="1">
          <mxGeometry x="670" y="40" width="100" height="250" as="geometry" />
        </mxCell>
        <mxCell id="Ofr6lyuUFpWB4M0gGV1Q-12" value="" style="html=1;points=[];perimeter=orthogonalPerimeter;outlineConnect=0;targetShapes=umlLifeline;portConstraint=eastwest;newEdgeStyle={&quot;edgeStyle&quot;:&quot;elbowEdgeStyle&quot;,&quot;elbow&quot;:&quot;vertical&quot;,&quot;curved&quot;:0,&quot;rounded&quot;:0};" parent="Ofr6lyuUFpWB4M0gGV1Q-11" vertex="1">
          <mxGeometry x="45" y="200" width="10" height="30" as="geometry" />
        </mxCell>
        <mxCell id="Ofr6lyuUFpWB4M0gGV1Q-13" value="" style="html=1;verticalAlign=bottom;endArrow=blockThin;endSize=8;edgeStyle=elbowEdgeStyle;elbow=vertical;curved=0;rounded=0;dashed=1;endFill=1;" parent="1" target="Ofr6lyuUFpWB4M0gGV1Q-12" edge="1">
          <mxGeometry relative="1" as="geometry">
            <mxPoint x="710" y="240" as="targetPoint" />
            <Array as="points" />
            <mxPoint x="584.9117647058824" y="240.17647058823536" as="sourcePoint" />
          </mxGeometry>
        </mxCell>
        <mxCell id="Ofr6lyuUFpWB4M0gGV1Q-19" value="" style="html=1;verticalAlign=bottom;endArrow=block;edgeStyle=elbowEdgeStyle;elbow=vertical;curved=0;rounded=0;dashed=1;" parent="1" edge="1">
          <mxGeometry x="-0.1111" relative="1" as="geometry">
            <mxPoint x="720" y="270" as="sourcePoint" />
            <Array as="points">
              <mxPoint x="680" y="270" />
            </Array>
            <mxPoint x="585" y="270" as="targetPoint" />
            <mxPoint as="offset" />
          </mxGeometry>
        </mxCell>
        <mxCell id="Ofr6lyuUFpWB4M0gGV1Q-20" value="Bank" style="shape=umlLifeline;perimeter=lifelinePerimeter;whiteSpace=wrap;html=1;container=0;dropTarget=0;collapsible=0;recursiveResize=0;outlineConnect=0;portConstraint=eastwest;newEdgeStyle={&quot;edgeStyle&quot;:&quot;elbowEdgeStyle&quot;,&quot;elbow&quot;:&quot;vertical&quot;,&quot;curved&quot;:0,&quot;rounded&quot;:0};" parent="1" vertex="1">
          <mxGeometry x="670" y="300" width="100" height="280" as="geometry" />
        </mxCell>
        <mxCell id="Ofr6lyuUFpWB4M0gGV1Q-21" value="" style="html=1;points=[];perimeter=orthogonalPerimeter;outlineConnect=0;targetShapes=umlLifeline;portConstraint=eastwest;newEdgeStyle={&quot;edgeStyle&quot;:&quot;elbowEdgeStyle&quot;,&quot;elbow&quot;:&quot;vertical&quot;,&quot;curved&quot;:0,&quot;rounded&quot;:0};" parent="Ofr6lyuUFpWB4M0gGV1Q-20" vertex="1">
          <mxGeometry x="45" y="67" width="10" height="30" as="geometry" />
        </mxCell>
        <mxCell id="Ofr6lyuUFpWB4M0gGV1Q-22" value="&lt;font style=&quot;font-size: 10px;&quot;&gt;Notify Payment Made&lt;font style=&quot;font-size: 10px;&quot;&gt;&lt;br&gt;&lt;/font&gt;&lt;/font&gt;" style="html=1;verticalAlign=bottom;endArrow=block;edgeStyle=elbowEdgeStyle;elbow=vertical;curved=0;rounded=0;dashed=1;" parent="1" target="3agZdKZBJswB5Rg16gf0-4" edge="1">
          <mxGeometry y="-1" relative="1" as="geometry">
            <mxPoint x="712.5" y="381" as="sourcePoint" />
            <Array as="points">
              <mxPoint x="682.5" y="381" />
            </Array>
            <mxPoint x="587.5" y="381" as="targetPoint" />
            <mxPoint as="offset" />
          </mxGeometry>
        </mxCell>
        <mxCell id="Ofr6lyuUFpWB4M0gGV1Q-24" value="" style="endArrow=classic;html=1;rounded=0;" parent="1" source="Ofr6lyuUFpWB4M0gGV1Q-23" target="3agZdKZBJswB5Rg16gf0-1" edge="1">
          <mxGeometry width="50" height="50" relative="1" as="geometry">
            <mxPoint x="410" y="420" as="sourcePoint" />
            <mxPoint x="460" y="370" as="targetPoint" />
            <Array as="points" />
          </mxGeometry>
        </mxCell>
        <mxCell id="Ofr6lyuUFpWB4M0gGV1Q-25" value="" style="endArrow=classic;html=1;rounded=0;exitX=0.984;exitY=0.739;exitDx=0;exitDy=0;exitPerimeter=0;" parent="1" source="Ofr6lyuUFpWB4M0gGV1Q-26" target="Ofr6lyuUFpWB4M0gGV1Q-23" edge="1">
          <mxGeometry width="50" height="50" relative="1" as="geometry">
            <mxPoint x="579" y="410" as="sourcePoint" />
            <mxPoint x="440" y="410" as="targetPoint" />
            <Array as="points">
              <mxPoint x="520" y="410" />
            </Array>
          </mxGeometry>
        </mxCell>
        <mxCell id="Ofr6lyuUFpWB4M0gGV1Q-23" value="" style="html=1;points=[];perimeter=orthogonalPerimeter;outlineConnect=0;targetShapes=umlLifeline;portConstraint=eastwest;newEdgeStyle={&quot;edgeStyle&quot;:&quot;elbowEdgeStyle&quot;,&quot;elbow&quot;:&quot;vertical&quot;,&quot;curved&quot;:0,&quot;rounded&quot;:0};" parent="1" vertex="1">
          <mxGeometry x="435" y="389" width="10" height="40" as="geometry" />
        </mxCell>
        <mxCell id="Ofr6lyuUFpWB4M0gGV1Q-26" value="PaymentReceivedEvent" style="text;html=1;align=center;verticalAlign=middle;resizable=0;points=[];autosize=1;strokeColor=none;fillColor=none;fontSize=10;" parent="1" vertex="1">
          <mxGeometry x="447" y="388" width="130" height="30" as="geometry" />
        </mxCell>
        <mxCell id="Ofr6lyuUFpWB4M0gGV1Q-27" value="" style="endArrow=classic;html=1;rounded=0;" parent="1" edge="1">
          <mxGeometry width="50" height="50" relative="1" as="geometry">
            <mxPoint x="575" y="450.00000000000006" as="sourcePoint" />
            <mxPoint x="160.00000000000006" y="449.99999999999994" as="targetPoint" />
          </mxGeometry>
        </mxCell>
        <mxCell id="Ofr6lyuUFpWB4M0gGV1Q-29" value="PaymentHandled" style="text;html=1;align=center;verticalAlign=middle;resizable=0;points=[];autosize=1;strokeColor=none;fillColor=none;fontSize=10;" parent="1" vertex="1">
          <mxGeometry x="310" y="426" width="100" height="30" as="geometry" />
        </mxCell>
        <mxCell id="wO8NKmpIP8Z3knT7PbZn-2" value="&lt;font style=&quot;font-size: 10px;&quot;&gt;Return Customer Blacklist&lt;br&gt;&lt;/font&gt;" style="text;html=1;align=center;verticalAlign=middle;resizable=0;points=[];autosize=1;strokeColor=none;fillColor=none;" vertex="1" parent="1">
          <mxGeometry x="583" y="248" width="140" height="30" as="geometry" />
        </mxCell>
      </root>
    </mxGraphModel>
  </diagram>
</mxfile>
